<svg width="44" height="45" viewBox="0 0 44 45" fill="none" xmlns="http://www.w3.org/2000/svg">
<path d="M23.6562 8.63718C23.6562 5.66377 27.2723 4.19831 29.3424 6.33279L41.1081 18.4647C42.3643 19.76 43.0668 21.4935 43.0668 23.2979V36.8326C43.0668 39.806 39.4508 41.2715 37.3807 39.137L25.615 27.0051C24.3588 25.7098 23.6562 23.9763 23.6562 22.1719V8.63718Z" fill="#0C7FDA"/>
<path d="M11.625 8.16745C11.625 5.19404 15.241 3.72858 17.3111 5.86307L28.7954 17.7047C30.2321 19.1862 31.0356 21.1688 31.0356 23.2325V36.3629C31.0356 39.3363 27.4195 40.8018 25.3495 38.6673L13.5837 26.5354C12.3275 25.2401 11.625 23.5066 11.625 21.7022V8.16745Z" fill="#2196F3"/>
<path d="M0 8.63706C0 5.66365 3.61605 4.19819 5.68611 6.33267L17.4518 18.4646C18.708 19.7599 19.4106 21.4934 19.4106 23.2978V36.8325C19.4106 39.8059 15.7945 41.2714 13.7245 39.1369L1.95873 27.005C0.702531 25.7097 0 23.9762 0 22.1718V8.63706Z" fill="#6EBBF7"/>
</svg>
